<svg xmlns="http://www.w3.org/2000/svg" viewBox="0 0 24 24" fill="#059669">
  <path d="M21 12c-1.3-3.2-4.1-5.8-7.5-7.1C11.2 3.8 8.8 3.2 6.3 3c-1.2-.1-2.4 0-3.5.3C1.6 3.7.8 4.7.3 5.9c-.2.5-.3 1-.3 1.6 0 .8.2 1.5.5 2.2.8 1.8 2.4 3.2 4.3 3.9 1.9.7 4 .6 5.8-.2 1.8-.8 3.2-2.4 3.9-4.3.3-.8.4-1.6.4-2.5 0-.4-.1-.8-.2-1.2.9 1.8 1.4 3.8 1.4 5.9 0 7.2-5.8 13-13 13S0 18.2 0 11 5.8-2 13-2c2.1 0 4.1.5 5.9 1.4-.4-.1-.8-.2-1.2-.2-.9 0-1.7.1-2.5.4-1.9.7-3.5 2.1-4.3 3.9-.8 1.8-.9 3.9-.2 5.8.7 1.9 2.1 3.5 3.9 4.3 1.8.8 3.9.9 5.8.2 1.9-.7 3.5-2.1 4.3-3.9.3-.7.4-1.4.5-2.2.3 1.2.3 2.4.2 3.5-.2 2.5-.8 4.9-1.9 7.2C22.8 16.1 22.3 14.1 21 12z"/>
</svg>